<svg width="128" height="128" viewBox="0 0 128 128" fill="none" xmlns="http://www.w3.org/2000/svg">
<path d="M79.7502 8.84335C72.9239 8.7816 66.6464 13.7108 64.2344 20.3668C61.8029 13.6528 55.4354 8.70285 48.5394 8.85085C44.7619 8.9321 40.8269 10.5418 37.2894 14.2338C34.4219 17.2258 32.8237 21.1793 31.1877 25.1713C27.4377 30.7938 22.4212 34.9889 15.1487 36.6399C16.8987 38.2334 18.8062 39.0623 20.8127 39.4056C17.2647 41.3626 12.4169 42.4441 5.49268 42.1006C10.6247 48.6824 18.6534 50.9211 27.0627 50.7336C42.2417 50.1486 49.9247 42.4021 54.4222 34.5149L58.4767 36.8274C53.3799 45.7659 43.6892 54.7056 26.6567 55.3509C26.6562 55.4109 26.6567 55.4709 26.6567 55.5309C26.6567 57.0476 26.9867 58.8809 27.5782 60.9524L27.5157 60.8354L34.8907 89.5541L36.0469 79.8976C40.3207 87.7626 45.4644 96.0956 50.1799 103.39L50.5859 91.8584C52.0434 101.487 55.7559 110.215 60.3514 118.601C62.6857 121.978 64.1639 124.046 64.1639 124.046C64.1639 124.046 65.9022 121.623 68.6327 117.655C68.6502 117.63 68.6707 117.602 68.6877 117.577C73.8777 109.373 78.2017 100.763 80.2972 91.1006L80.0314 100.46C82.3669 96.7936 84.7622 92.9381 87.0704 89.0461V96.1631L97.2037 70.1319C99.6729 64.7356 101.332 59.9914 101.618 56.5464C85.1894 54.5671 73.8162 46.0814 68.5392 36.8276L72.5942 34.5151C77.5197 43.1531 89.2292 51.7476 107.172 52.2806C110.943 52.2056 114.648 51.3749 118.57 49.4524C114.865 49.4819 111.701 49.1823 108.938 48.5931C114.773 47.3091 119.832 44.3944 122.969 39.1006C97.3342 44.4156 100.383 23.8456 91.1722 14.2336C87.5797 10.4851 83.5797 8.8776 79.7504 8.8431L79.7502 8.84335Z" fill="url(#paint0_linear_342_3021)"/>
<defs>
<linearGradient id="paint0_linear_342_3021" x1="64.0002" y1="37.3324" x2="109.334" y2="119.999" gradientUnits="userSpaceOnUse">
<stop stop-color="#0E8365"/>
<stop offset="0.765991" stop-color="#15B57B"/>
<stop offset="1" stop-color="#0C7C76"/>
</linearGradient>
</defs>
</svg>
